<?xml version="1.0" standalone="no"?>
<!DOCTYPE svg PUBLIC "-//W3C//DTD SVG 20010904//EN"
 "http://www.w3.org/TR/2001/REC-SVG-20010904/DTD/svg10.dtd">
<svg version="1.0" xmlns="http://www.w3.org/2000/svg"
 width="512.000000pt" height="512.000000pt" viewBox="0 0 512.000000 512.000000"
 preserveAspectRatio="xMidYMid meet">
<metadata>
Created by potrace 1.11, written by Peter Selinger 2001-2013
</metadata>
<g transform="translate(0.000000,512.000000) scale(0.100000,-0.100000)"
fill="#000000" stroke="none">
<path d="M1397 3934 c-1 -1 -38 -4 -82 -8 -332 -24 -549 -124 -727 -333 -62
-73 -133 -208 -167 -316 -70 -229 -76 -535 -15 -797 109 -467 403 -864 794
-1071 95 -50 248 -106 341 -124 152 -30 224 -37 373 -39 l109 -1 14 45 c7 25
16 52 18 60 2 8 36 122 75 253 40 131 70 240 69 241 -2 2 -65 6 -139 10 -484
22 -818 259 -935 663 -30 103 -40 183 -38 323 2 262 90 391 306 450 99 27 139
30 478 30 l287 1 -18 67 c-50 184 -99 358 -130 462 -11 36 -20 71 -20 78 0 9
-71 11 -295 10 -163 -1 -296 -3 -298 -4z"/>
<path d="M2862 3926 c-15 -18 -124 -242 -174 -356 -162 -368 -248 -668 -285
-990 -16 -146 -8 -425 16 -533 6 -23 12 -53 14 -67 11 -60 49 -166 89 -246
102 -205 272 -352 488 -423 59 -20 154 -39 280 -57 25 -3 333 -8 685 -11 l641
-5 -1 1349 0 1348 -362 2 -363 1 0 -1038 c0 -821 -3 -1039 -12 -1042 -26 -10
-335 0 -393 12 -204 41 -319 176 -350 410 -7 52 -7 230 0 278 21 152 23 164
51 282 64 260 175 548 384 995 23 50 44 93 46 97 8 12 -745 7 -754 -6z"/>
</g>
</svg>
