<?xml version="1.0" encoding="UTF-8"?>
<svg width="25px" height="26px" viewBox="0 0 25 26" version="1.1" xmlns="http://www.w3.org/2000/svg" xmlns:xlink="http://www.w3.org/1999/xlink">
    <!-- Generator: Sketch 54.1 (76490) - https://sketchapp.com -->
    <title>instagram</title>
    <desc>Created with Sketch.</desc>
    <g id="Page-1" stroke="none" stroke-width="1" fill="none" fill-rule="evenodd">
        <path d="M16.5413737,13.3458526 C16.5413737,11.0681829 14.6837,9.21050921 12.4060303,9.21050921 C10.1283605,9.21050921 8.27068684,11.0681829 8.27068684,13.3458526 C8.27068684,15.6235224 10.1283605,17.4811961 12.4060303,17.4811961 C14.6837,17.4811961 16.5413737,15.6235224 16.5413737,13.3458526 Z M18.7705816,13.3458526 C18.7705816,16.8673553 15.9275329,19.7104039 12.4060303,19.7104039 C8.88452632,19.7104039 6.04147763,16.8673553 6.04147763,13.3458526 C6.04147763,9.82434868 8.88452632,6.9813 12.4060303,6.9813 C15.9275329,6.9813 18.7705816,9.82434868 18.7705816,13.3458526 Z M20.5151789,6.72284211 C20.5151789,7.54667895 19.8528789,8.20898026 19.0290408,8.20898026 C18.2052026,8.20898026 17.5429013,7.54667895 17.5429013,6.72284211 C17.5429013,5.89900395 18.2052026,5.23670263 19.0290408,5.23670263 C19.8528789,5.23670263 20.5151789,5.89900395 20.5151789,6.72284211 Z M12.4060303,3.16903158 C10.5968171,3.16903158 6.71993289,3.02364737 5.08841053,3.66979474 C4.52303158,3.89594737 4.10303553,4.17055921 3.66688684,4.60670921 C3.23073684,5.04285789 2.95612368,5.46285395 2.72997237,6.02823289 C2.083825,7.65975526 2.22920789,11.5366395 2.22920789,13.3458526 C2.22920789,15.1550645 2.083825,19.0319487 2.72997237,20.6634711 C2.95612368,21.22885 3.23073684,21.6488461 3.66688684,22.0849961 C4.10303553,22.5211447 4.52303158,22.7957579 5.08841053,23.0219092 C6.71993289,23.6680566 10.5968171,23.5226737 12.4060303,23.5226737 C14.2152421,23.5226737 18.0921263,23.6680566 19.7236487,23.0219092 C20.2890276,22.7957579 20.7090237,22.5211447 21.1451737,22.0849961 C21.5813224,21.6488461 21.8559355,21.22885 22.0820868,20.6634711 C22.7282342,19.0319487 22.5828513,15.1550645 22.5828513,13.3458526 C22.5828513,11.5366395 22.7282342,7.65975526 22.0820868,6.02823289 C21.8559355,5.46285395 21.5813224,5.04285789 21.1451737,4.60670921 C20.7090237,4.17055921 20.2890276,3.89594737 19.7236487,3.66979474 C18.0921263,3.02364737 14.2152421,3.16903158 12.4060303,3.16903158 Z M24.8120592,13.3458526 C24.8120592,15.0581434 24.8282132,16.7542803 24.7312908,18.4665697 C24.6343697,20.4534737 24.1820658,22.214225 22.7282342,23.6680566 C21.2744026,25.1218882 19.5136513,25.5741921 17.5267474,25.6711132 C15.8144579,25.7680355 14.1183211,25.7518816 12.4060303,25.7518816 C10.6937395,25.7518816 8.99760263,25.7680355 7.28531184,25.6711132 C5.29840921,25.5741921 3.53765658,25.1218882 2.083825,23.6680566 C0.629993421,22.214225 0.177690789,20.4534737 0.0807684211,18.4665697 C-0.0161539474,16.7542803 -1.19262239e-17,15.0581434 -1.19262239e-17,13.3458526 C-1.19262239e-17,11.6335618 -0.0161539474,9.937425 0.0807684211,8.22513421 C0.177690789,6.23823158 0.629993421,4.47747895 2.083825,3.02364737 C3.53765658,1.56981579 5.29840921,1.11751316 7.28531184,1.02059079 C8.99760263,0.923668421 10.6937395,0.939822368 12.4060303,0.939822368 C14.1183211,0.939822368 15.8144579,0.923668421 17.5267474,1.02059079 C19.5136513,1.11751316 21.2744026,1.56981579 22.7282342,3.02364737 C24.1820658,4.47747895 24.6343697,6.23823158 24.7312908,8.22513421 C24.8282132,9.937425 24.8120592,11.6335618 24.8120592,13.3458526 Z" id="instagram" fill="#FFFFFF" fill-rule="nonzero"></path>
    </g>
</svg>