<svg version="1.1" id="Layer_1" xmlns="http://www.w3.org/2000/svg" xmlns:xlink="http://www.w3.org/1999/xlink" x="0px" y="0px"
	 viewBox="0 0 1219 1200" style="enable-background:new 0 0 1219 1200;" xml:space="preserve">
<style type="text/css">
	.st0{fill:#989898;}
	.st1{fill:#999999;}
	.st2{fill:#ACACAC;}
</style>
<g>
	<path class="st0" d="M799.9,88c2.4,2.1,5.5,1.9,9.8,3.1c-6-5.3-11-9.5-15.8-13.9c-11.1-10-16.7-22.6-17.8-37.4
		c-0.8-11.4-0.1-22.6,2.1-33.8c0.7-3.4,2.2-4.1,5.1-2.4c10.9,6.5,21.4,13.5,28.7,24.4c7.6,11.3,10.4,24.1,11.8,37.2
		c1,9.2,1,18.6-0.6,27.9c-0.5,2.8,0.6,4.4,3.1,5.4c11.5,4.9,22.7,10.4,33.7,16.4c9.2,5,18.2,10.3,28.4,16.1
		c-3.8-6.2-7.9-10.6-11.6-15.2c-10.8-13.3-13.1-28.4-11.4-44.7c1-10.2,4.6-19.7,7.9-29.4c1.2-3.4,2.9-4.1,5.8-1.7
		c18,14.6,29.8,32.3,30.1,56.6c0.2,13.5-2,26.5-5.8,39.4c-0.9,3-0.6,5,2.2,6.8c18.4,11.7,35.4,25.4,52.2,39.3
		c0.4,0.3,0.8,0.5,2.5,1.4c-2-4-3.3-6.9-5-9.7c-12.2-20-10.9-40.6-2.3-61.4c2.6-6.3,5.5-12.5,9.3-18.2c2.3-3.4,3.8-3.2,6.4-0.4
		c18.2,19.6,24.9,42.3,19,68.7c-2.4,10.5-5.6,20.6-10.8,29.9c-1.7,3.1-1.7,5,1.3,7.6c14.8,13.2,28.2,27.8,40.8,43.1
		c0.5,0.6,0.9,1.4,1.4,2.1c0.4-0.2,0.7-0.4,1.1-0.6c-1.2-5-2.3-10-3.8-15c-3.9-13.5-0.9-26.2,4.6-38.4c4.8-10.7,11.5-20.2,19.2-29
		c3.4-3.8,4.3-3.8,7,0.5c14,23.1,17.6,46.9,6.4,72.4c-4.5,10.1-9.2,20-16.1,28.6c-1.7,2.2-1.4,4,0,5.8
		c12.7,17.2,23.5,35.5,33.9,54.1c0.4,0.7,0.9,1.3,2.1,2.9c-0.8-8.2-1.6-15.2-1.9-22.3c-0.6-14.3,5.1-26.3,13.1-37.5
		c5.9-8.3,13.3-15.3,21-22c5.6-4.9,6.3-4.6,9.1,2.2c6.1,14.7,8.2,30,5,45.5c-3,14.6-11,27-19.9,38.8c-4,5.3-8.7,10-13.6,14.6
		c-1.7,1.6-2.3,2.9-1.2,5.2c8.6,18.2,16.5,36.8,22.7,56c0.6,1.8,1.6,3.5,3,6.4c0.7-8.6,0.9-15.9,1.9-23.1
		c1.9-13.5,9.2-24.1,18.5-33.5c8.5-8.6,18.5-15.2,28.9-21.2c2.8-1.6,5-2.3,5.7,1.9c3.7,20.1,4.5,39.8-6.7,58.1
		c-9,14.6-20.4,27.1-34.9,36.5c-6.6,4.3-6.8,4.4-4.9,12c4.2,16.8,8.5,33.6,11,50.8c0.4,2.4,1,4.8,1.6,7.5c2.2-1.5,1.9-3.5,2.2-5.2
		c3.7-24.6,18.2-40.7,39.8-51.6c6.8-3.4,13.6-7,21.1-9c3.6-1,5.1-0.5,5.3,3.6c0.5,16.6-1.3,32.7-10,47.3
		c-6.4,10.7-15.7,18.9-25.7,26.3c-8.1,5.9-16.6,11.1-26,14.8c-3.2,1.3-2.9,3.7-2.7,6.2c1.3,18.8,2.5,37.6,2.1,56.4
		c0,0.6,0.2,1.2,1.3,2.2c1-2.3,2.2-4.6,3.1-6.9c5.7-15.1,16-25.8,30.2-33.1c12.7-6.6,26.3-10.3,40.5-12.1c3.8-0.5,4.8,0.7,4.2,4.3
		c-2.7,16.8-7.3,32.9-18.9,46c-7.9,9-17.9,15.3-28.4,20.8c-9.3,4.9-19.2,8.4-29.4,11c-2.8,0.7-4.3,2.1-4.5,5.1
		c-1,18.2-3.9,36.1-7.7,53.8c-0.2,0.9,0,1.8,0,3.7c3.8-5.3,6.9-10,10.3-14.4c10.4-13.6,24.9-20,41.2-23.3
		c10.3-2.1,20.7-3.2,31.3-2.8c6,0.2,6.2,0.5,4.6,6.1c-8.9,30.3-28.5,49.8-59,58.1c-10.6,2.9-21.3,5.7-32.4,5.9
		c-2.2,0-3.8,0.7-4.4,3.1c-4.4,18-10.3,35.5-16.3,53c0,0.1,0.1,0.3,0.3,0.8c4.4-2.8,7.2-7.3,10.9-10.6
		c12.2-10.9,26.7-15.3,42.6-16.1c12.4-0.7,24.6,0.6,36.8,2.8c4.5,0.8,4.6,2.6,2.8,6.1c-14.5,27.3-35.8,45-67.6,48.2
		c-11.8,1.2-23.5,2.5-35.3,0.3c-1.9-0.4-3.6-0.3-4.6,1.9c-7.7,16.3-16.2,32.1-25.2,47.7c-0.2,0.4-0.2,0.9-0.3,1.6
		c2.6,0.5,4.2-1.3,5.7-2.5c22.2-17.7,46.9-16.2,72.2-9.4c5.8,1.6,11.4,3.8,17.1,5.7c2.9,1,3.6,2.7,1.7,5.3
		c-16.4,21.4-36.2,36.6-64.6,37.4c-16.3,0.4-32.3-0.3-47.8-5.8c-3.3-1.2-5.1-0.4-7.4,2.7c-10.9,14.7-21.5,29.6-34.4,42.6
		c-0.2,0.2-0.1,0.6-0.2,1.5c4.8-0.9,8.8-3.3,12.9-5.2c18.6-8.9,37.1-7.3,55.9-0.9c10,3.4,19.4,8,28.4,13.4c6.1,3.6,6.2,4.1,1.1,8.7
		c-23,21-49.3,30.1-80.4,22.6c-12.9-3.1-25.3-7.1-37.2-12.9c-2.8-1.4-4.5-0.8-6.6,1.2c-10.1,9.4-20.4,18.7-30.5,28.1
		c-3.7,3.5-8.3,6-11.8,10.8c7.2-2,13.7-4,20.3-5.5c15.4-3.7,29.9,0.3,43.6,6.8c12.9,6.2,24.9,14.1,35.3,24.2
		c2.7,2.7,2.4,3.8-0.6,5.8c-16.8,11.2-35,18-55.4,16.9c-16.9-0.9-32.5-6.8-47.3-14.8c-6.5-3.5-12.7-7.3-18.5-11.9
		c-1.7-1.4-3.5-2.3-5.9-0.7c-14.6,9.9-29.3,19.7-44.6,28.4c-0.3,0.1-0.4,0.5-0.6,0.9c0.9,1.6,2.4,0.7,3.5,0.5
		c25.7-3.9,47.4,4,66.3,21.6c7,6.5,13.5,13.3,19.7,20.4c4.3,5,4.2,5.7-2.4,8.4c-23,9.4-46.2,12.9-69.8,2.2
		c-17.8-8-33.7-18.8-47.1-33.1c-2-2.2-3.9-3.5-6.9-1.9c-15.4,8-31.9,13.4-47.9,20.4c4,0.4,7.9,1,11.9,1.3
		c14.9,1.1,27.5,7.3,38.7,16.9c13.6,11.6,23.4,26.2,32,41.7c2.2,4,1.1,5.6-3.1,6.4c-15.5,3-31.1,4.1-46.7,0.9
		c-12.7-2.6-23.5-9.1-33.6-17c-13.8-10.7-25.8-23.1-34.7-38.2c-1.8-3-4.3-2.6-7-2.1c-26,5.1-51.6,11.9-76.4,21.2
		c-7.6,2.9-15.2,5.9-22.8,9c-1.3,0.5-3.2,0.8-3.2,2.7c0,1.5,1.7,1.9,2.8,2.5c17.8,9.5,34.6,20.6,50.5,33.1
		c6.1,4.8,11.7,10.3,17.5,15.6c2.4,2.2,1.9,3.9-0.4,6.1c-5,4.9-11.1,8.5-15.2,14.4c-0.3,0-0.7,0-1,0c-8.8-3.6-14.1-11.5-21-17.3
		c-11.6-9.8-23.8-18.6-36.6-26.8c-5.6-3.6-11.4-6.9-17-10.4c-3.5-2.2-6.7-2.3-10.3-0.2c-24.3,14-47.4,29.6-67.1,49.7
		c-2.3,2.4-5.2,3.5-7.9,5c-0.3,0-0.7,0-1,0c-6.6-3-11.8-7.7-16.6-12.9c-3.4-3.7-3.3-5.6,0.2-9.4c8.6-9.4,18.6-17.1,28.8-24.6
		c10.5-7.7,21.6-14.4,32.7-21.1c1.4-0.8,3.4-1.4,3.4-3.3c-0.1-2.3-2.5-2.4-4.1-3.1c-22.3-9.8-45.6-16.9-69.3-22.4
		c-6.6-1.5-13.1-3.7-19.9-4.7c-4.1-0.6-6.8,0.5-9.3,4.1c-12.3,17.7-27.3,32.8-45.9,43.9c-9.8,5.9-20.7,9.6-32.5,10.3
		c-12.1,0.7-23.9,0.1-35.7-2.1c-7.7-1.4-9.3-4.3-5.7-11c10.4-19.5,23.3-36.9,42.1-49.1c10.1-6.5,21.4-10,33.5-10.4c1,0,2,0,2.9,0.4
		c0.5,0.2,1.1,0.4,1.6,0.5c-0.5-0.2-0.9-0.3-1.4-0.4c-14.2-3-27-9.7-40.1-15.5c-4.3-1.9-7.4-0.6-10.3,2.5
		c-8.9,9.6-19.4,17.2-30.7,23.7c-14.5,8.2-29.7,14.9-46.7,14.1c-14.3-0.6-28.4-3.7-41.5-10c-4.8-2.3-5.6-4.7-2.4-9.1
		c6.3-8.9,13.9-16.6,22.1-23.7c9.7-8.5,20.5-15.3,32.8-19.6c10-3.5,20.3-2.1,30-2.3c-5.4-2.2-10.4-6.2-15.7-9.6
		c-5.7-3.7-11.6-7.2-17.1-11.3c-6-4.4-7.6-4.1-13.8,0.1c-15.5,10.6-32.2,18.7-50.9,22.2c-18.6,3.4-36.4,1.1-53.4-7.5
		c-5-2.6-10.3-4.7-14.9-8.1c-4.3-3.1-4.8-5.5-1-9.3c13.3-13.2,28.6-23.3,46.5-29.3s25.4-5.8,46,0.2c-7.5-4.7-13.3-11.7-20.1-17.6
		c-4.5-3.9-9.1-7.8-13-12.4c-2.2-2.6-5-3-8.2-2c-3,1-5.8,2.4-8.8,3.7c-18.7,7.9-38.1,11.8-58.4,10.8c-5.4-0.3-10.5-1.8-15.5-3.7
		c-14.2-5.3-27.2-12.6-37.7-23.7c-3.6-3.8-3.5-5.4,0.6-8.9c3.9-3.3,8.5-5.3,12.9-7.6c19.2-10.2,39.5-15.8,61.5-12.2
		c7.5,1.2,14,5,20,7.6c-6.8-6.5-12.8-14.9-19.2-23c-3.2-4-6.3-8.2-9.3-12.4c-2.4-3.3-5.4-4.3-9.2-3c-14.3,5-29.1,5-43.9,4.9
		c-23.8-0.2-42.9-10.2-58.7-27.5c-3.4-3.7-6.9-7.3-9.8-11.3c-2.6-3.5-2-6.3,2-8c20.9-8.7,42.5-13.9,65.2-9.8
		c11.2,2,20.9,7.3,29.3,15.1c0.4,0.6,0.3-0.5,0,0.1c-0.1,0.1-0.2,0.1-0.4-0.2c-5.7-6.9-8.9-15.1-13.1-22.8
		c-3.2-5.8-6.6-11.6-9.1-17.8c-1.6-4.1-4.9-5.4-8.9-4.7c-12.9,2.2-25.6-0.1-38.2-2.1c-23.8-3.7-42-15.9-55.1-35.9
		c-2.8-4.3-5.8-8.6-7.8-13.4c-2.2-5.3-1-7.5,4.5-8.6c17.5-3.4,35-4.5,52.6-1c12.8,2.6,23.4,9.1,32.7,18c0.7,0.7,1.4,1.4,1.9,2.3
		c0.4,0.7,0.9,1.3,0.7,2.1c-6.2-13.9-10.2-28.6-14.2-43.3c-1.1-4.2-3.3-5.8-7.6-6.4c-21.2-2.7-41.6-7.9-59.4-20.3
		c-6.3-4.4-11.5-10.2-15.9-16.5c-6.3-9.1-11.8-18.6-13.2-30c-0.7-6.3-0.3-6.5,5.8-7.2c12-1.4,23.8,0.4,35.2,2.9
		c15.1,3.3,28.9,9.8,38.7,22.7c1.8,2.4,4.5,4.2,5.1,6.4c-0.9-2.1-0.2-5.4-1.4-8.3c-2.3-11.3-3.2-22.7-4.3-34.1
		c-0.5-5.4-3.1-8.1-8-9.3c-13.6-3.3-25.9-9.5-37.5-17c-19.1-11.9-31-27.9-33.6-50c-0.2-1.8,0.1-4-1.5-5.6c0-3.7,0-7.3,0-11
		c19.1,2,37.2,6.9,53.5,17.6c10.3,6.8,16.8,16.4,21.9,27.3c1.1,2.3,2,4.7,3.1,7.5c1.9-2.2,1.3-4.1,1.3-5.9
		c-0.2-17.7,0.7-35.3,2.8-52.9c0.4-3.2-0.7-4.7-3.7-6c-17.7-7.6-33.1-18.5-45.7-33.2c-11.2-13-14.5-28.9-16.1-45.4
		c-0.1-1.5-0.1-3-0.1-4.5c0-10.7,0-10.9,10-7.4c15,5.2,28.6,12.9,40,23.9c9.5,9.2,14.2,21.2,16.8,34c0.5,2.3,0.9,4.6,2,6.9
		c1.8-9.1,3.9-18.2,5.4-27.3c2-11.7,5.3-23,8.5-34.4c0.8-3.1,0.2-4.9-2.6-6.6c-16.7-10.5-29.7-24.6-39.9-41.3
		c-4.8-7.9-6.3-16.8-7.2-25.8c-1-9.9,0.1-19.6,2.1-29.3c0.6-2.9,1.4-4.7,4.9-2.8c14.8,8,28,17.9,38.3,31.5c8.3,11,11.1,23.6,11.5,37
		c0.1,3,0,6,0.8,9.2c1.7-4.3,3.6-8.6,5-13c5.3-16,11.9-31.4,19.1-46.7c1.7-3.7,1.5-6.3-1.7-9.1c-11.9-10.6-20.3-23.7-27.2-37.9
		c-7.6-15.6-7.3-31.9-3.4-48.3c1.2-4.9,2.6-9.6,4.9-14.1c1.1-2.2,2.3-3.2,4.6-1.4c16.5,13.4,31.2,28.3,36.4,49.8
		c2,8.3,1.1,16.9,0.2,25.4c-0.3,2.8-0.7,5.6-1.3,9.9c2.9-5,5.1-8.7,7.1-12.4c8.3-15.2,17.5-29.9,27.6-44c2.2-3.2,3-5.4,0.2-9.1
		c-11.2-14.7-18-31.4-21.4-49.6c-2.6-14.1,2.1-27,7.4-39.7c1.6-3.8,3.9-7.3,6-11c1.6-2.8,3.4-3.5,5.8-0.7
		c12.1,14.6,23,29.8,25.7,49.4c1.5,10.9-1.2,21.2-4.2,31.4c-0.2,0.8-0.5,1.5,0,3c3.5-3.9,7-7.9,10.5-11.8
		c9.1-10.4,18.3-20.7,28.8-29.7c6.6-5.6,6.6-5.8,2.9-13.6c-7.9-16.7-11.6-34.4-10.7-52.9c0.6-13.7,6.7-25.3,14.7-36
		c2.1-2.8,4.3-5.5,6.6-8.1c1.8-2,3.5-2.1,5.1,0.6c8.5,14.1,15.1,28.9,16.5,45.6c1.1,13-3.3,24.6-9.4,35.7c-1.3,2.3-2.5,4.6-3,7.7
		c3.9-3.1,7.9-6.1,11.7-9.3c13.1-10.9,26.7-20.9,40.9-30.3c3-2,3.9-3.9,2.6-7.4c-6.7-17.6-6.9-35.9-4.1-54.2
		c1.7-10.8,7.8-19.7,14.7-28c4.2-5,8.9-9.4,14.1-13.4c2.2-1.7,4-2,5,0.9c8.9,25.1,15.2,50-2.5,74.3c-3.6,4.9-8.1,9.1-11.8,15.7
		c6.5-3.7,11.7-6.7,17-9.7c14.6-8.5,29.6-16,45-22.7c4-1.7,2.9-4.7,2.6-7.6c-1.8-16.9-0.9-33.5,4.8-49.8c5.2-15,15.7-25.2,28.7-33.5
		c2.4-1.5,4.8-2.9,7.3-4.3c2.3-1.3,3.9-0.8,4.3,1.9c3.2,20.6,5.8,41.1-5.9,60.2c-4.8,8.1-11.8,14-18.8,19.9
		c-1.7,1.5-3.9,2.6-4.6,5.3c13-6.7,28.5-6.9,39.4-19.3c15.2-17.2,35-21.3,57-14.4c3.3,1.1,6.6,2.3,10,3.1c4.1,1,3.8,2.9,1.3,5.4
		c-11.9,11.9-25.7,20.7-42.4,24c-8.7,1.7-17.4,0-25.4-3.6c-6.9-3.1-13.1-3.2-20-0.1c-11.1,5.1-23,8.6-33.7,15.4
		c5.5-0.5,11-1,16.4-1.5c14.1-1.3,27.7,0,39.8,8.1c12.6,8.3,22.3,19.4,29.9,32.3c1.5,2.6,0.7,4-2,4.7c-23.4,6.4-45.4,5-65.3-10.7
		c-9.2-7.3-17.9-15-24.4-24.8c-2.5-3.7-5-4.5-9.1-2.3c-16.4,8.6-32.6,17.3-48,27.6c-4.3,2.8-9.2,4.8-13.4,9.8c4-1.1,7-1.6,9.9-2.6
		c27-9.9,50-2.5,70.4,16c3.8,3.5,7.3,7.3,10.9,11c2,2.1,1.6,3.6-1,5c-26,13.4-51.3,12-75.9-3.4c-7.5-4.7-14.6-9.8-20.9-16.1
		c-2.4-2.4-4.5-3.4-7.7-1c-18.5,13.9-36.7,28.2-53.3,44.4c-0.3,0.3-0.4,0.8-0.8,1.7c4.7-1,8.5-3,12.3-4.8c19.2-9.2,38.1-9,57.2,0.4
		c8.4,4.2,16.3,8.9,23.6,14.8c1.4,1.1,3.4,2.2,0.9,4.2c-15.2,11.8-32,19.3-51.7,17.2c-17.1-1.8-33.1-7.5-47.5-17
		c-7.3-4.8-8.2-4.3-14,2c-12.7,13.7-25,27.7-36.3,42.5c-2.8,3.6-5.6,7.2-8.1,12.9c8.6-7,16.7-12,25.1-16.7c12.2-6.9,25-7.4,38.3-5.4
		c12.1,1.9,23.3,6.7,34.2,12.2c2.9,1.5,3.7,2.9,1,5.9c-17.6,18.7-38.5,28.9-64.7,25.1c-12.7-1.8-25.4-3.9-36.9-10.1
		c-2.5-1.3-4.6-1.6-6.4,1.2c-11.9,18.9-23.2,38.1-32.8,58.2c-0.6,1.2-0.9,2.4-1.7,4.4c5.6-5,10.6-9.4,15.6-14
		c15.5-14.2,34.2-15.7,53.9-13.6c7.5,0.8,14.7,3,21.8,5.2c5.6,1.7,5.9,2.1,2.6,7c-14.6,21.5-33.9,34.9-60.8,35.4
		c-12.2,0.2-24.3,0.1-36.3-2.8c-2.4-0.6-4.4-1-5.8,2c-8.9,19.8-16.1,40.2-22.1,61c-0.1,0.4,0.1,0.9,0.2,2.1c4.2-5.1,8-9.8,11.9-14.4
		c12.1-14,28-19.9,46-20.9c9.1-0.5,18.3-0.4,27.4,0.8c4.1,0.5,5.3,1.8,3.6,5.7c-10.1,23.6-26,40.8-52,46.8
		c-13.2,3-26.4,5.5-40.1,4.3c-2.6-0.2-3.9,0.5-4.6,3.2c-5.8,22.1-9,44.7-12.7,68.3c3.1-2.5,3.8-5.2,5-7.6
		c6.1-12.2,12.9-23.8,25.1-31c16.2-9.5,33.9-13.5,52.5-13.8c3.8-0.1,4.5,1.5,3.7,5c-4.1,17.4-11.6,33.1-25.4,44.8
		c-9.7,8.3-21.4,13.5-33.5,17.4c-8.1,2.6-16.3,5.1-24.8,5.8c-3.1,0.3-4.4,1.5-4.6,4.6c-1.1,22.1-1.4,44.3,0.5,67.7
		c2.1-6.1,4.1-11,5.6-16.1c6-19.8,19.1-32.9,37.6-41.5c9.9-4.6,20.2-7.7,30.6-10.5c3.3-0.9,4.6,0.1,4.3,3.6
		c-1.3,17.9-5.5,34.9-16.8,49.4c-6.9,9-16.1,15.3-25.6,21.2c-9.7,6-19.9,10.7-30.9,13.8c-2.1,0.6-3.3,1.5-2.9,3.8
		c3.2,19.9,5.9,39.9,11.7,59.2c0.1,0.2,0.5,0.4,0.8,0.6c1.5-1.3,0.9-3.1,1-4.6c1.8-25.3,13.9-44.3,35.1-57.8
		c7.9-5,16.2-9.3,24.8-12.9c3.2-1.4,5.1-1.3,5.6,2.6c2.6,23.1-0.3,44.7-15.7,63.5c-11.4,13.9-25.1,24.6-40.8,33.2
		c-2.5,1.4-3.9,2.6-3,5.8c5.1,18.9,12.1,37,19.6,55c0.2,0.6,0.8,1,1.5,1.8c1.3-2.1,0.7-4.1,0.7-6c-0.1-10.5-0.8-21.1,2.4-31.3
		c5-15.8,15.7-27.6,28-38.1c5.5-4.8,11.5-9.1,17.7-13c2.7-1.7,4.2-1.3,5.1,1.8c7.6,25.9,7.6,50.7-8.6,74c-9,13-19.4,24.5-31.8,34.2
		c-2.6,2-2.1,3.8-0.9,6c5.9,11.4,12.1,22.6,19,33.4c3.3,5.3,6.2,10.9,11,15.9c-1-6.8-1.9-13.1-2.9-19.3c-2.9-19.2,4-35.6,14.7-51
		c5.9-8.5,12.9-16.1,20.4-23.2c4.9-4.6,4.8-4.6,8,1.7c6.7,13.2,10.1,27.1,10.4,41.8c0.4,17.9-6.8,33.4-15.4,48.4
		c-4.7,8.2-10.4,15.9-17.1,22.7c-1.7,1.8-1.7,3.6-0.2,5.3c11.2,13.6,22.1,27.5,34.5,40.1c0.5,0.6,1.2,1,3.1,2.4
		c-1.6-4.4-2.7-7.5-3.9-10.5c-6.5-16.4-6.3-32.7-0.2-49.2c5-13.6,12.2-25.9,20.8-37.4c3.9-5.2,4.6-5.1,8.4,0.1
		c10.8,14.9,17.7,31.2,19.3,49.6c0.5,5.2-0.3,10.3-1.3,15.4c-3.6,17.9-9,35.2-19.1,50.6c-1.7,2.6-2,4.7,0.4,7
		c12.7,11.6,25.9,22.5,39.3,33.1c0.5,0.4,1.1,0.5,2.4,1c-2.3-4.5-4.2-8.6-6.4-12.3c-10.5-17.8-9.5-36.7-4.9-55.8
		c2.9-12,7.5-23.4,13.7-34.2c1.7-2.9,2.7-2.4,4.7-0.6c24.6,22.5,36.2,49.7,30.5,83.3c-2.1,12-3.9,24-9.1,35.2c-1,2.1-2,4.1,0.9,6
		c15.4,10.2,31.5,19.4,47.7,28.2c0.6,0.3,1.2,0.4,3,1.1c-3.4-4-6-7.2-8.8-10.4c-17.6-19.8-21.3-43.1-16.8-68.2
		c1.6-9.2,3.2-18.4,6.6-27.2c1.4-3.5,2.5-3.7,5.6-1.5c12.6,8.7,23.7,18.7,32.1,31.6c7.1,10.9,10.2,23.1,11.7,35.7
		c2,16.7,1.5,33.3-2.7,49.6c-0.5,2.1-0.4,3.6,1.8,4.5c16,6.2,31.8,12.8,48.5,16.9c0.4,0.1,0.9-0.1,1.9-0.2
		c-2.9-4.7-7.4-7.3-11.1-10.7c-14.6-13.2-20.9-30-23.1-49c-1.6-13.5-0.9-26.9,0.8-40.4c0.5-4.3,2.2-4.5,5.6-2.9
		c15,6.8,28.7,15.6,39.6,28.1c10.6,12.1,15.5,27,18.8,42.5c2.5,11.6,3.9,23.3,3.4,35.2c-0.1,3.6,1,5.2,4.8,6
		c27.6,5.7,54.7,13.4,81,23.5c8.4,3.2,16.7,6.8,24.8,10.5c3.7,1.7,6.8,1.6,10.4-0.1c18.8-8.5,38.2-15.7,57.9-21.7
		c15.8-4.8,31.8-8.5,47.9-12.2c3.4-0.8,4.2-2.5,4.1-5.6c-0.3-13.8,2.3-27.1,5.1-40.5c6.2-29.3,23.8-49.1,50.1-62.1
		c1.5-0.7,3-1.4,4.5-2.2c7.5-3.9,7.7-3.9,8.6,4.4c2.5,22.8,2.3,45.3-7.6,66.7c-5.7,12.3-15.7,20.9-25.9,29.2c-0.6,0.5-1.3,1-3.1,2.3
		c6.9-0.9,12.2-2.4,17.4-4.3c10.8-3.9,21.5-8.1,32.3-11.9c3.9-1.4,5.5-3,4.6-7.6c-3.8-18.1-3.8-36.4-1.2-54.7
		c3.2-22.1,15.3-38.6,32-52.4c3.9-3.2,7.9-6.1,12.1-8.8c2.3-1.5,3.1-0.9,3.9,1.4c8.3,23.5,11.2,47.3,4.7,71.7
		c-3,11.2-10.5,19.9-17.8,28.6c-1.2,1.4-2.8,2.4-3.4,5.5c5.4-2.9,10.4-5.2,15-8c10.9-6.4,21.9-12.7,32.4-19.8
		c3.4-2.3,3.2-3.9,1.9-7.2c-8.4-21.8-13.1-44.3-9-67.5c3.6-20.5,15.5-36.9,30.8-50.8c2.2-2,3.5-1,4.6,1.1c1.8,3.4,3.6,6.8,5.2,10.3
		c8.9,20,14.6,40.5,10.2,62.6c-1.7,8.5-6,16.2-10.4,23.7c-0.9,1.5-1.9,3-2.4,4.8c5.7-1.9,9.6-6.4,14-9.9
		c9.1-7.3,17.6-15.3,26.5-22.8c3.3-2.7,3.2-4.8,1.1-8.4c-12.2-20.7-20.7-42.6-19.7-67.1c0.8-19.1,9.6-35,20.5-50.1
		c1.3-1.8,2.6-3.1,4.6-0.5c15,19.2,26.7,39.8,27.8,65c0.4,8.9-2.8,17-5.5,25.2c-1,2.9-2,5.9-2.6,9c9.3-8.7,17.4-18.4,25.4-28.1
		c3.7-4.5,7.2-9.2,10.9-13.7c1.8-2.2,1.8-3.6-0.3-5.9c-14.7-16-24.7-34.6-30.6-55.4c-2.6-9-2.6-18.2-0.7-27.2
		c2.4-11.4,5.3-22.7,11.2-33c1.5-2.7,2.5-2.4,4.4-0.6c13.7,12.7,25.8,26.5,33.2,43.9c5.4,12.7,5.7,25.9,3.3,39.3
		c-0.7,3.9-1.4,7.8-1.3,12c2.5-3.7,5.1-7.2,7.3-11c7.2-12,14.5-23.9,21.1-36.3c2-3.7,2.4-5.8-1.7-8.9
		c-16.6-12.8-29.7-28.7-38.5-47.8c-6.3-13.8-6.2-28.5-4.1-43.2c0.8-5.4,2.1-10.8,3.3-16.1c0.7-3.1,2.4-3.8,5.1-2
		c18.6,12.2,35.5,26.2,44.6,47.2c4.5,10.4,4.6,21.7,4.1,32.9c-0.1,2.8-0.4,5.6-0.2,8.5c2.9-3.7,4.6-8,6.3-12.4
		c5.6-14.3,10.9-28.6,15.2-43.3c1-3.5,0.4-5.3-3-7.1c-18.6-9.7-34.1-23.2-46.2-40.4c-6.1-8.8-8.9-19-10.4-29.4
		c-1.2-8.6-0.7-17.3-0.2-26c0.2-3.4,1.3-5.5,5.4-3.7c15.7,6.8,30.4,15,42.4,27.6c6.8,7.1,11.8,15.1,14.3,24.8
		c2,7.9,3.6,15.8,5.2,23.9c3.1-12.3,6.7-24.3,8.5-36.8c1-7.1,1.9-14.2,3-21.3c0.6-3.8-0.4-5.7-4.3-6.9c-19.4-6-36.7-15.9-51-30.3
		c-10.8-10.9-16.2-24.6-18.5-39.7c-0.7-4.6-0.9-9.3-1.5-13.9c-0.4-3.2,0.8-4.4,3.9-3.5c6.9,2,13.9,3.5,20.6,6.1
		c12.8,5,24.9,11,34.4,21.5c7.2,8,11.4,17.5,14.6,27.6c1.2,3.8,2.2,7.6,3.3,11.4c0.4,0,0.8,0,1.3,0c0.4-4.8,1-9.5,1.2-14.3
		c0.5-17.3,0.4-34.6-0.7-52c-0.2-3.2-1.6-4.1-4.6-4.5c-18-2.5-34.9-8.2-50.5-17.7c-14.3-8.6-23.1-21.3-28.8-36.5
		c-1.7-4.4-3-8.8-4.4-13.3c-1.1-3.4-0.5-5.6,3.7-5.4c21.9,0.8,42.7,4.8,60.1,19.5c8.9,7.5,13.8,17.8,19,27.8c0.5,1,1,2.1,1.5,3.1
		c0,0.1,0.3,0.1,1.1,0.2c-0.8-6.7-1.5-13.2-2.3-19.7c-1.9-15.4-6-30.4-8.9-45.6c-0.7-3.6-2.2-4.7-6.1-4.5
		c-21.2,0.8-41.7-2.5-60.4-12.8c-12.6-6.9-20.7-18.6-27.4-31c-1.5-2.8-2.9-5.6-4.2-8.5c-1.1-2.4-0.3-3.9,2.4-4.2
		c20.6-2.2,41-3.1,60.1,7.1c7.9,4.2,14,10.6,19.6,17.5c2.8,3.5,5.4,7.1,8.9,10.5c-0.5-1.9-0.9-3.9-1.5-5.8
		c-6.1-19.6-13.2-38.7-21.1-57.7c-1.6-3.9-4.1-3-6.9-2.4c-17.8,3.9-35.7,3.8-53.6,0.2c-13.1-2.7-23.3-10.4-32.3-19.8
		c-4.4-4.6-8.5-9.3-11.7-14.9c-1.3-2.2-1.4-3.4,1.3-4.4c15.9-5.8,32.3-7.9,49.2-5.9c14.4,1.7,25.6,10,35.8,19.5
		c2.5,2.4,4.6,5.2,6.8,7.9c0.5-0.4,1-0.8,1.5-1.2c-2.9-6-5.6-12.2-8.8-18c-7.6-13.9-15.7-27.5-24-40.9c-2.5-4-4.8-5.2-9.5-3
		c-16.4,7.9-33.9,10.9-51.9,10.1c-14.1-0.6-26.2-7-37.2-15.5c-4.1-3.1-7.9-6.6-11.4-10.4c-1.9-2.1-2.6-3.3,0.4-4.8
		c18.3-9.6,37.2-16.4,58.4-13.1c10.5,1.6,19.1,7.5,27.9,13c3.6,2.3,7.1,4.9,10.6,7.4c1.2-1.4,0.1-2.3-0.5-3.1
		c-13.8-18.8-28.7-36.7-45.1-53.4c-2.9-3-5.2-3-8.6-0.7c-16.8,11.7-35.5,18.5-56,18.9c-17,0.4-31.7-6.8-45-16.9c-2.3-1.7-2-3,0-4.6
		c21.8-16.9,44.9-28.5,73.4-18.5c7.5,2.6,14.6,6.2,22.5,9.6c-3.5-4.8-8-7.9-12-11.5C942.5,176.8,928,165,913,154
		c-5.4-4-5.6-3.7-10.3,1c-7.8,7.8-16.8,14.2-26.8,18.9c-7.2,3.3-14.4,6.9-22.5,8.2c-16.7,2.8-32-1.9-46.8-8.9
		c-2.1-1-2.9-2.2-1.1-4.1c13.6-14.8,28.5-27.7,49.1-31.3c10.9-1.9,21.6,0.4,32,3.5c3.1,0.9,6.3,1.8,9.7,2.3
		c-6-5.8-13.2-10-20.2-14.2c-11.1-6.6-22.6-12.8-33.9-19.2c-0.9-0.5-1.7-1.1-2.6-1.5c-10.7-4.7-8.5-4.7-15.1,3.4
		c-14,17.4-30.3,32-53.6,35.6c-11.9,1.8-23.6-0.2-35.1-3.3c-2.5-0.7-2.9-1.9-1.6-3.9c10.6-16.1,22.4-30.7,41.1-38
		c9-3.5,18.6-3.6,28.1-2.9c5.9,0.4,11.7,1,17.7,1.1c-7.5-4.4-15.4-7.7-23.4-10.7c-0.8-0.4-1.5-1-0.8-1.8C798,87.2,799,87.3,799.9,88
		z"/>
	<path class="st1" d="M777,82c-11.8,5.3-23.9,10.2-37.1,6.9c-15.8-3.9-29.4-12-40.4-24.4c-1.6-1.8-2.4-3.2,0.8-4.3
		c10.9-3.6,21.9-6.7,33.6-6.5c10.5,0.2,18.9,5.1,26.9,10.8c6.1,4.3,11.4,9.7,16.1,15.5C777.6,80.7,777.6,81.3,777,82z"/>
	<path class="st2" d="M777,82c0-0.6,0-1.3,0-1.9c7.8,2.2,15.6,4.3,22.9,8c-1.1,0.1-2.2,0.2-1.9,1.8C791,87.2,784,84.6,777,82z"/>
</g>
</svg>
